<?xml version="1.0" encoding="UTF-8" standalone="no"?><!-- Generator: Gravit.io --><svg xmlns="http://www.w3.org/2000/svg" xmlns:xlink="http://www.w3.org/1999/xlink" style="isolation:isolate" viewBox="0 0 300 300" width="300pt" height="300pt"><defs><clipPath id="_clipPath_qsiMjq42YdgBLm2O6xIy0WovvZbWpPR7"><rect width="300" height="300"/></clipPath></defs><g clip-path="url(#_clipPath_qsiMjq42YdgBLm2O6xIy0WovvZbWpPR7)"><g><rect x="0" y="0" width="300" height="300" transform="matrix(1,0,0,1,0,0)" fill="rgb(68,0,153)"/><path d=" M 59.925 250.025 L 99.834 300.505 L 300.003 300.003 L 299.135 99.929 L 238.942 48.105 L 244.741 69.06 L 244.741 103.853 L 244.741 148.004 L 244.214 226.553 L 237.36 246.191 L 220.359 257.393 L 182.007 256.339 L 143.128 256.339 L 93.046 256.339 L 59.925 250.025 Z " fill="rgb(60,3,130)"/><path d="M 81 45.64 L 220 45.64 C 233.798 45.64 245 56.843 245 70.641 L 245 230.359 C 245 244.157 233.798 255.36 220 255.36 L 81 255.36 C 67.202 255.36 56 244.157 56 230.359 L 56 70.641 C 56 56.843 67.202 45.64 81 45.64 Z" style="fill:none;stroke:#FFFFFF;stroke-width:9;stroke-miterlimit:2;"/><path d=" M 99.35 168.696 C 137.422 149.66 163.257 147.62 172.096 151.7 C 178.214 154.419 178.214 161.898 178.214 161.898 L 178.214 229.204 L 200.65 229.204 L 200.65 161.218 C 200.65 161.218 199.97 139.462 182.294 131.304 C 182.294 131.304 140.142 130.624 122.465 135.383 L 122.465 70.796 L 99.35 70.796 M 183.653 107.508 C 183.653 107.508 198.61 92.551 200.65 70.796 L 177.535 70.796 C 174.135 90.512 160.538 107.508 160.538 107.508 M 99.35 228.524 L 124.505 206.089 L 99.35 183.653" fill="rgb(255,255,255)"/></g></g></svg>