<?xml version="1.0" encoding="UTF-8" standalone="no"?><!-- Generator: Gravit.io --><svg xmlns="http://www.w3.org/2000/svg" xmlns:xlink="http://www.w3.org/1999/xlink" style="isolation:isolate" viewBox="0 0 300 300" width="300pt" height="300pt"><defs><clipPath id="_clipPath_XjrPj9NEouZx93GrJXM03cq98YuDWXwm"><rect width="300" height="300"/></clipPath></defs><g clip-path="url(#_clipPath_XjrPj9NEouZx93GrJXM03cq98YuDWXwm)"><rect width="300" height="300" style="fill:rgb(46,46,46)"/><linearGradient id="_lgradient_5" x1="0.5" y1="0.00015157603379951923" x2="0.49999999999999983" y2="0.9999912582065108" gradientTransform="matrix(240,0,0,240,30,30)" gradientUnits="userSpaceOnUse"><stop offset="0%" stop-opacity="1" style="stop-color:rgb(33,198,183)"/><stop offset="100%" stop-opacity="1" style="stop-color:rgb(76,155,191)"/></linearGradient><path d=" M 203.931 113.312 L 203.846 113.312 C 203.79 113.299 203.739 113.269 203.7 113.226 C 203.555 113.069 203.492 112.853 203.529 112.643 L 208.371 83.068 L 231.094 105.761 L 207.429 115.737 C 207.363 115.763 207.293 115.778 207.223 115.78 L 207.171 115.78 C 207.171 115.78 207.111 115.78 207.051 115.686 C 206.164 114.712 205.107 113.907 203.931 113.312 Z  M 236.88 111.512 L 261.171 135.774 C 266.22 140.813 268.74 143.333 269.666 146.246 C 269.802 146.674 269.914 147.109 270 147.549 L 211.954 123.004 L 211.86 123.004 C 211.629 122.91 211.354 122.799 211.354 122.559 C 211.354 122.319 211.629 122.207 211.86 122.113 L 211.929 122.113 L 236.88 111.512 Z  M 269.006 155.339 C 266.797 158.646 264.163 161.648 261.171 164.269 L 233.794 191.608 L 198.377 184.237 L 198.189 184.237 C 197.88 184.186 197.537 184.135 197.537 183.843 C 197.26 180.894 195.774 178.192 193.431 176.379 C 193.286 176.233 193.329 176.01 193.363 175.796 L 193.363 175.71 L 200.031 134.865 L 200.031 134.728 C 200.031 134.42 200.126 134.051 200.417 134.051 C 203.3 133.692 205.919 132.192 207.686 129.886 C 207.729 129.817 207.788 129.758 207.857 129.715 C 208.074 129.658 208.305 129.689 208.5 129.8 L 269.006 155.339 Z  M 227.494 197.898 L 182.469 242.874 L 190.183 195.558 L 190.183 195.49 L 190.183 195.318 C 190.243 195.164 190.406 195.104 190.569 195.036 L 190.646 195.036 C 192.332 194.317 193.824 193.21 195 191.805 C 195.139 191.615 195.339 191.479 195.566 191.419 C 195.625 191.411 195.686 191.411 195.746 191.419 L 227.494 197.898 Z  M 172.937 252.386 L 167.863 257.46 L 111.754 176.464 L 111.686 176.379 C 111.584 176.279 111.525 176.144 111.523 176.002 C 111.542 175.899 111.59 175.804 111.66 175.727 L 111.72 175.65 C 111.891 175.402 112.037 175.153 112.2 174.879 L 112.329 174.665 L 112.329 174.665 C 112.399 174.513 112.512 174.384 112.654 174.296 C 112.801 174.245 112.962 174.245 113.109 174.296 L 175.277 187.1 C 175.451 187.128 175.616 187.199 175.757 187.305 C 175.822 187.38 175.864 187.473 175.877 187.571 L 175.877 187.691 C 176.784 190.965 179.154 193.635 182.297 194.924 C 182.469 195.01 182.391 195.207 182.297 195.413 C 182.258 195.504 182.227 195.599 182.203 195.696 C 181.457 200.435 174.737 241.348 172.937 252.386 Z  M 162.334 262.97 C 160.049 265.735 157.161 267.94 153.891 269.415 C 151.432 270.195 148.791 270.195 146.331 269.415 C 143.409 268.49 140.889 265.987 135.84 260.931 L 79.491 204.651 L 94.209 181.846 C 94.27 181.732 94.354 181.633 94.457 181.555 C 94.639 181.469 94.85 181.469 95.031 181.555 C 96.478 182.001 97.984 182.223 99.497 182.215 C 101.487 182.204 103.455 181.805 105.291 181.041 C 105.436 180.951 105.619 180.951 105.763 181.041 C 105.827 181.105 105.887 181.174 105.943 181.246 L 162.334 262.97 Z  M 74.049 199.226 L 61.131 186.311 L 86.666 175.436 C 86.734 175.424 86.803 175.424 86.871 175.436 C 87.086 175.436 87.206 175.65 87.326 175.847 L 87.411 175.984 C 87.651 176.353 87.9 176.679 88.14 176.996 L 88.217 177.099 C 88.286 177.201 88.217 177.304 88.166 177.416 L 74.049 199.226 Z  M 55.414 180.604 L 39.06 164.269 C 36.274 161.492 34.26 159.478 32.863 157.739 L 82.577 168.023 L 82.766 168.023 C 83.074 168.074 83.417 168.126 83.417 168.417 C 83.417 168.708 83.049 168.871 82.731 169 L 82.586 169.06 L 55.414 180.604 Z  M 30 149.34 C 30.061 148.287 30.251 147.245 30.566 146.238 C 31.491 143.324 33.994 140.804 39.06 135.765 L 60 114.88 C 63.429 119.936 86.237 152.811 88.894 156.616 L 88.98 156.728 C 89.151 156.959 89.34 157.207 89.151 157.396 C 88.196 158.392 87.364 159.5 86.674 160.695 C 86.604 160.847 86.498 160.979 86.366 161.081 C 86.281 161.116 86.185 161.116 86.1 161.081 L 86.1 161.081 L 30 149.34 Z  M 65.589 109.275 L 93.729 81.165 C 96.377 82.322 106.003 86.384 114.609 90.018 C 121.131 92.769 127.071 95.28 128.931 96.077 C 129.119 96.125 129.278 96.249 129.369 96.42 C 129.407 96.543 129.407 96.674 129.369 96.797 C 129.181 97.685 129.086 98.589 129.086 99.497 C 129.087 102.764 130.367 105.902 132.651 108.238 C 132.84 108.418 132.651 108.692 132.489 108.932 L 132.403 109.061 L 103.834 153.265 C 103.77 153.386 103.679 153.492 103.569 153.574 C 103.396 153.647 103.201 153.647 103.029 153.574 C 101.909 153.28 100.757 153.125 99.6 153.111 C 98.502 153.147 97.409 153.279 96.334 153.505 L 96.334 153.505 C 96.229 153.557 96.105 153.557 96 153.505 C 95.888 153.416 95.793 153.309 95.717 153.188 L 65.589 109.275 Z  M 99.429 75.458 L 135.866 39.069 C 140.914 34.03 143.434 31.51 146.357 30.585 C 148.817 29.805 151.457 29.805 153.917 30.585 C 156.84 31.51 159.36 34.013 164.409 39.069 L 172.303 46.954 L 146.374 87.07 C 146.308 87.185 146.22 87.287 146.117 87.37 C 145.937 87.451 145.731 87.451 145.551 87.37 C 144.273 87 142.948 86.813 141.617 86.813 C 138.671 86.838 135.818 87.852 133.517 89.693 C 133.346 89.855 133.097 89.753 132.883 89.693 C 129.497 88.193 103.174 77.077 99.429 75.458 Z  M 177.797 52.447 L 201.729 76.349 L 195.969 112 L 195.969 112.095 C 195.966 112.177 195.948 112.258 195.917 112.335 C 195.857 112.463 195.737 112.489 195.609 112.515 L 195.471 112.515 C 194.288 112.888 193.173 113.453 192.171 114.186 L 192.051 114.297 C 191.991 114.383 191.898 114.439 191.794 114.451 C 191.704 114.459 191.612 114.444 191.529 114.409 L 155.074 98.94 L 154.997 98.94 C 154.766 98.845 154.491 98.734 154.491 98.494 C 154.285 96.516 153.65 94.606 152.631 92.898 L 152.554 92.769 C 152.374 92.478 152.186 92.178 152.331 91.912 L 177.797 52.447 Z  M 153.146 106.31 L 187.32 120.768 C 187.518 120.822 187.687 120.951 187.791 121.127 C 187.825 121.242 187.825 121.364 187.791 121.479 C 187.681 122.021 187.62 122.571 187.611 123.124 L 187.611 124.084 C 187.611 124.316 187.363 124.418 187.14 124.513 L 187.063 124.513 C 181.654 126.818 111.051 156.882 110.949 156.882 C 110.83 156.896 110.711 156.859 110.623 156.779 C 110.434 156.599 110.623 156.325 110.786 156.085 L 110.871 155.956 L 138.96 112.532 L 139.011 112.455 C 139.174 112.189 139.363 111.898 139.663 111.898 L 139.946 111.94 C 140.529 112.041 141.119 112.098 141.711 112.112 C 145.959 112.128 149.934 110.022 152.306 106.498 C 152.36 106.405 152.429 106.321 152.511 106.25 C 152.719 106.161 152.958 106.184 153.146 106.31 Z  M 114 163.823 L 190.946 131.052 C 191.029 131.059 191.106 131.099 191.16 131.163 C 191.511 131.506 191.883 131.826 192.274 132.123 L 192.446 132.234 C 192.6 132.329 192.763 132.423 192.771 132.586 L 192.771 132.74 L 186.171 173.156 L 186.171 173.319 C 186.171 173.636 186.086 173.996 185.786 173.996 C 182.23 174.242 179.024 176.223 177.214 179.292 L 177.214 179.344 C 177.145 179.492 177.035 179.616 176.897 179.704 C 176.755 179.747 176.603 179.747 176.46 179.704 L 115.097 167.063 C 115.097 167.063 114.069 163.832 114 163.823 Z " fill="url(#_lgradient_5)"/></g></svg>