<?xml version="1.0" encoding="UTF-8" standalone="no"?><!-- Generator: Gravit.io --><svg xmlns="http://www.w3.org/2000/svg" xmlns:xlink="http://www.w3.org/1999/xlink" style="isolation:isolate" viewBox="0 0 300 300" width="300pt" height="300pt"><defs><clipPath id="_clipPath_bf8I455DTvtyVYv4oPlmnLRHX8L7UMvL"><rect width="300" height="300"/></clipPath></defs><g clip-path="url(#_clipPath_bf8I455DTvtyVYv4oPlmnLRHX8L7UMvL)"><g><rect x="0" y="0" width="300" height="300" transform="matrix(1,0,0,1,0,0)" fill="rgb(204,102,153)"/><path d=" M 78.206 251.14 L 126.672 300.34 L 299.676 300.524 L 299.676 116.478 L 231.457 59.024 L 146.922 57.632 L 120.947 71.2 L 85.695 95.551 L 72.591 123.498 L 86.622 157.474 L 110.742 175.1 L 123.498 186.116 L 131.151 208.961 L 117.12 234.124 L 100.19 242.821 L 78.206 251.14 Z " fill="rgb(176,89,133)"/><path d=" M 151.172 51.563 C 94.922 70.898 58.594 110.156 62.109 133.594 C 65.625 157.031 100.781 175.781 116.602 188.086 L 116.602 188.086 C 96.094 198.633 70.313 214.453 70.898 234.961 C 72.07 263.086 102.539 254.297 115.43 246.094 C 128.32 237.891 141.211 215.039 133.008 191.016 C 151.172 186.328 166.992 192.188 171.68 195.703 C 189.844 208.594 180.469 223.242 174.023 225.586 C 167.578 227.93 171.68 229.102 175.781 227.93 C 179.883 226.758 188.672 220.898 188.672 210.938 C 188.672 185.742 161.719 174.023 128.32 182.813 C 108.984 162.305 82.617 152.93 83.789 130.664 C 84.375 122.461 87.305 101.367 139.453 75 C 191.602 48.633 228.516 59.18 223.828 83.203 C 216.797 119.531 153.516 144.141 131.25 123.047 C 130.078 120.703 125.977 118.945 128.32 125.391 C 140.039 154.688 234.961 141.211 239.063 79.102 C 240.234 46.289 192.773 37.5 151.172 51.563 Z  M 100.781 239.063 C 86.133 243.75 86.719 234.375 87.305 230.859 C 89.063 220.898 97.266 208.594 121.875 196.289 C 128.906 218.555 113.086 235.547 100.781 239.063 Z " fill="rgb(255,255,255)"/></g></g></svg>