<?xml version="1.0" encoding="UTF-8" standalone="no"?><!-- Generator: Gravit.io --><svg xmlns="http://www.w3.org/2000/svg" xmlns:xlink="http://www.w3.org/1999/xlink" style="isolation:isolate" viewBox="0 0 300 300" width="300pt" height="300pt"><defs><clipPath id="_clipPath_JEpzS1AGoTpH9U3te20x9rYmJWUlE1fc"><rect width="300" height="300"/></clipPath></defs><g clip-path="url(#_clipPath_JEpzS1AGoTpH9U3te20x9rYmJWUlE1fc)"><rect width="300" height="300" style="fill:rgb(240,239,228)"/><path d=" M 180 300 L 166 300 L 83 224 L 257 300 L 166 300 L 257 300 L 180 300 Z " fill="rgb(162,162,162)"/><path d=" M 149.227 275.938 Q 154.308 279.933 168.289 290.864 L 180 300 L 300 300 L 300 180 L 233 94 L 245 135 L 244 171 L 231 198 L 211 218 L 183 239 L 154 240 L 95 233.537 Q 137.99 267.103 149.227 275.938 Z " fill="rgb(162,162,162)"/><path d=" M 149.483 50.007 C 141.115 50.038 132.785 51.083 124.68 53.167 C 85.685 62.877 54.733 98.234 50.765 138.34 C 47.481 163.671 54.938 189.713 70.013 210.053 C 77.514 220.173 86.901 228.882 97.789 235.389 C 129.985 255.561 173.561 254.754 205.069 233.537 C 233.39 215.124 250.994 181.587 249.957 147.725 C 249.475 114.233 230.69 81.673 201.944 64.466 C 186.29 54.787 167.874 49.932 149.483 50.001 L 149.483 50.007 Z  M 148.926 64.147 C 190.127 64.078 230.49 95.982 234.621 138.609 C 242.501 185.829 203.344 233.831 155.563 235.233 C 110.125 239.763 66.181 201.177 64.881 155.49 C 61.501 118.506 85.879 81.779 120.699 69.553 C 129.679 65.974 139.253 64.147 148.92 64.179 L 148.926 64.147 Z  M 191.371 91.07 C 168.974 108.464 147.527 127.009 125.623 144.935 C 135.647 145.06 145.739 145.06 155.794 144.991 C 167.543 126.94 179.622 109.121 191.371 91.064 L 191.371 91.07 Z  M 144.177 154.908 C 132.429 172.997 120.324 190.847 108.563 208.936 C 131.029 191.567 152.376 172.896 174.41 155.071 C 164.318 154.946 154.232 154.914 144.171 154.914 L 144.177 154.908 Z " fill="rgb(0,0,0)"/></g></svg>